<svg width="20" height="20" viewBox="0 0 20 20" fill="none" xmlns="http://www.w3.org/2000/svg">
<path d="M18.3333 0H1.66667C0.746192 0 0 0.746192 0 1.66667V2.77778C0 3.69825 0.746192 4.44444 1.66667 4.44444H18.3333C19.2538 4.44444 20 3.69825 20 2.77778V1.66667C20 0.746192 19.2538 0 18.3333 0Z" fill="#525252"/>
<path d="M18.3333 7.77783H1.66667C0.746192 7.77783 0 8.52402 0 9.4445V10.5556C0 11.4761 0.746192 12.2223 1.66667 12.2223H18.3333C19.2538 12.2223 20 11.4761 20 10.5556V9.4445C20 8.52402 19.2538 7.77783 18.3333 7.77783Z" fill="#525252"/>
<path d="M18.3333 15.5555H1.66667C0.746192 15.5555 0 16.3017 0 17.2222V18.3333C0 19.2538 0.746192 20 1.66667 20H18.3333C19.2538 20 20 19.2538 20 18.3333V17.2222C20 16.3017 19.2538 15.5555 18.3333 15.5555Z" fill="#525252"/>
</svg>
