<svg width="32" height="33" viewBox="0 0 32 33" fill="none" xmlns="http://www.w3.org/2000/svg">
<path d="M12 12.98V20.98H14.8042C17.6737 20.98 20 18.6537 20 15.7841V12.98H12Z" fill="#6F6F6F"/>
<path d="M12 20.98H4V27.7841C4 30.6537 6.32625 32.98 9.19583 32.98H18.8042C21.6737 32.98 24 30.6537 24 27.7841V26.98H17.1958C14.3263 26.98 12 24.6537 12 21.7841V20.98Z" fill="#E0E0E0"/>
<path d="M20 6.97998V12.98C22.2091 12.98 24 14.7708 24 16.98V26.98H26.8042C29.6737 26.98 32 24.6537 32 21.7841V12.1758C32 9.30623 29.6737 6.97998 26.8042 6.97998H20Z" fill="#3F6212"/>
<path d="M5.19583 0.97998C2.32625 0.97998 0 3.30623 0 6.17581V16.98C0 19.1891 1.79086 20.98 4 20.98V18.1758C4 15.3062 6.32625 12.98 9.19583 12.98H12V12.1758C12 9.30623 14.3263 6.97998 17.1958 6.97998H20V6.17581C20 3.30623 17.6737 0.97998 14.8042 0.97998H5.19583Z" fill="#C6C6C6"/>
<path d="M9.19583 12.98C6.32625 12.98 4 15.3062 4 18.1758V20.98H12V12.98H9.19583Z" fill="#A8A8A8"/>
<path d="M17.1958 6.97998C14.3263 6.97998 12 9.30623 12 12.1758V12.98H20V6.97998H17.1958Z" fill="#8D8D8D"/>
<path d="M20 12.98V15.7841C20 18.6537 17.6737 20.98 14.8042 20.98H12V21.7841C12 24.6537 14.3263 26.98 17.1958 26.98H24V16.98C24 14.7708 22.2091 12.98 20 12.98Z" fill="#365314"/>
<path d="M24.1075 21.7644C24.1075 21.7987 24.0968 21.8294 24.0753 21.8568C24.0573 21.8842 24.0215 21.9064 23.9677 21.9235C23.9176 21.9406 23.8495 21.9543 23.7634 21.9646C23.6774 21.9748 23.5681 21.98 23.4355 21.98C23.3065 21.98 23.1989 21.9748 23.1129 21.9646C23.0269 21.9543 22.9588 21.9406 22.9086 21.9235C22.8584 21.9064 22.8226 21.8842 22.8011 21.8568C22.7796 21.8294 22.7688 21.7987 22.7688 21.7644V16.3605H22.7581L20.7419 21.7593C20.7276 21.8038 20.7043 21.8414 20.672 21.8722C20.6398 21.8996 20.595 21.9218 20.5376 21.9389C20.4839 21.956 20.414 21.9663 20.328 21.9697C20.2419 21.9766 20.138 21.98 20.0161 21.98C19.8943 21.98 19.7903 21.9748 19.7043 21.9646C19.6183 21.9577 19.5466 21.9458 19.4892 21.9287C19.4355 21.9081 19.3925 21.8842 19.3602 21.8568C19.328 21.8294 19.3065 21.7969 19.2957 21.7593L17.3495 16.3605H17.3387V21.7644C17.3387 21.7987 17.328 21.8294 17.3065 21.8568C17.2885 21.8842 17.2527 21.9064 17.1989 21.9235C17.1452 21.9406 17.0753 21.9543 16.9892 21.9646C16.9068 21.9748 16.7993 21.98 16.6667 21.98C16.5376 21.98 16.4301 21.9748 16.3441 21.9646C16.2581 21.9543 16.1882 21.9406 16.1344 21.9235C16.0842 21.9064 16.0484 21.8842 16.0269 21.8568C16.009 21.8294 16 21.7987 16 21.7644V15.8473C16 15.6728 16.0484 15.5394 16.1452 15.447C16.2419 15.3546 16.371 15.3084 16.5323 15.3084H17.457C17.6219 15.3084 17.7634 15.3221 17.8817 15.3495C18 15.3734 18.1022 15.4162 18.1882 15.4778C18.2742 15.5359 18.3459 15.6146 18.4032 15.7139C18.4606 15.8096 18.5108 15.9294 18.5538 16.0731L20.0591 20.0298H20.0806L21.6398 16.0834C21.6864 15.9397 21.7366 15.8182 21.7903 15.719C21.8477 15.6198 21.9122 15.5394 21.9839 15.4778C22.0591 15.4162 22.147 15.3734 22.2473 15.3495C22.3477 15.3221 22.4642 15.3084 22.5968 15.3084H23.5484C23.6452 15.3084 23.7276 15.3204 23.7957 15.3443C23.8674 15.3683 23.9247 15.4042 23.9677 15.4521C24.0143 15.4966 24.0484 15.553 24.0699 15.6215C24.095 15.6865 24.1075 15.7617 24.1075 15.8473V21.7644Z" fill="white"/>
<path d="M26.8978 21.7747C26.8978 21.8089 26.8871 21.8397 26.8656 21.8671C26.8441 21.891 26.8065 21.9116 26.7527 21.9287C26.7025 21.9458 26.6344 21.9577 26.5484 21.9646C26.4624 21.9748 26.353 21.98 26.2204 21.98C26.0878 21.98 25.9785 21.9748 25.8925 21.9646C25.8065 21.9577 25.7366 21.9458 25.6828 21.9287C25.6326 21.9116 25.5968 21.891 25.5753 21.8671C25.5538 21.8397 25.543 21.8089 25.543 21.7747V17.2073C25.543 17.173 25.5538 17.144 25.5753 17.12C25.5968 17.0926 25.6326 17.0704 25.6828 17.0533C25.7366 17.0328 25.8065 17.0174 25.8925 17.0071C25.9785 16.9968 26.0878 16.9917 26.2204 16.9917C26.353 16.9917 26.4624 16.9968 26.5484 17.0071C26.6344 17.0174 26.7025 17.0328 26.7527 17.0533C26.8065 17.0704 26.8441 17.0926 26.8656 17.12C26.8871 17.144 26.8978 17.173 26.8978 17.2073V21.7747ZM27 15.6471C27 15.9072 26.9444 16.0868 26.8333 16.186C26.7222 16.2852 26.5161 16.3348 26.2151 16.3348C25.9104 16.3348 25.7043 16.2869 25.5968 16.1911C25.4928 16.0953 25.4409 15.9226 25.4409 15.6728C25.4409 15.4128 25.4946 15.2332 25.6022 15.1339C25.7133 15.0313 25.9211 14.98 26.2258 14.98C26.5269 14.98 26.7312 15.0296 26.8387 15.1288C26.9462 15.2246 27 15.3974 27 15.6471Z" fill="white"/>
<path d="M30 11.9821C30 12.0598 29.9956 12.125 29.9869 12.1777C29.9782 12.2304 29.9651 12.2734 29.9476 12.3067C29.9301 12.3372 29.9098 12.3594 29.8865 12.3733C29.8632 12.3872 29.8384 12.3941 29.8122 12.3941H28.4541V13.8052C28.4541 13.8329 28.4469 13.8579 28.4323 13.8801C28.4178 13.8995 28.393 13.9175 28.3581 13.9342C28.3231 13.9481 28.2766 13.9592 28.2183 13.9675C28.1601 13.9758 28.0873 13.98 28 13.98C27.9127 13.98 27.8399 13.9758 27.7817 13.9675C27.7234 13.9592 27.6769 13.9481 27.6419 13.9342C27.607 13.9175 27.5808 13.8995 27.5633 13.8801C27.5488 13.8579 27.5415 13.8329 27.5415 13.8052V12.3941H26.1878C26.1616 12.3941 26.1368 12.3872 26.1135 12.3733C26.0932 12.3594 26.0742 12.3372 26.0568 12.3067C26.0393 12.2734 26.0247 12.2304 26.0131 12.1777C26.0044 12.125 26 12.0598 26 11.9821C26 11.9071 26.0044 11.8433 26.0131 11.7906C26.0218 11.7351 26.0335 11.6921 26.048 11.6616C26.0655 11.6283 26.0844 11.6047 26.1048 11.5908C26.1252 11.5769 26.1485 11.57 26.1747 11.57H27.5415V10.1631C27.5415 10.1354 27.5488 10.1104 27.5633 10.0882C27.5808 10.0632 27.607 10.0438 27.6419 10.0299C27.6769 10.0133 27.7234 10.0008 27.7817 9.99247C27.8399 9.98414 27.9127 9.97998 28 9.97998C28.0873 9.97998 28.1601 9.98414 28.2183 9.99247C28.2766 10.0008 28.3231 10.0133 28.3581 10.0299C28.393 10.0438 28.4178 10.0632 28.4323 10.0882C28.4469 10.1104 28.4541 10.1354 28.4541 10.1631V11.57H29.8253C29.8486 11.57 29.8705 11.5769 29.8908 11.5908C29.9141 11.6047 29.933 11.6283 29.9476 11.6616C29.9651 11.6921 29.9782 11.7351 29.9869 11.7906C29.9956 11.8433 30 11.9071 30 11.9821Z" fill="white"/>
</svg>
