<svg width="98" height="98" viewBox="0 0 98 98" fill="none" xmlns="http://www.w3.org/2000/svg">
<path d="M1 50.3901C1 62.7518 6.05713 74.6072 15.0589 83.3483C24.0606 92.0893 36.2696 97 49 97C61.7304 97 73.9394 92.0893 82.9412 83.3483C91.9429 74.6072 97 62.7518 97 50.3901C97 38.0284 91.9429 26.173 82.9412 17.432C73.9394 8.69094 61.7304 3.78027 49 3.78027C36.2696 3.78027 24.0606 8.69094 15.0589 17.432C6.05713 26.173 1 38.0284 1 50.3901Z" fill="#DFE2E6" stroke="#DFE2E6" stroke-width="0.48" stroke-miterlimit="10"/>
<path opacity="0.15" d="M79.7693 83.9573C79.7693 81.8167 65.9933 80.0793 49.0001 80.0793C32.0069 80.0793 18.2285 81.8179 18.2285 83.9573C18.2285 86.0967 32.0057 87.8364 48.9989 87.8364C65.9921 87.8364 79.7693 86.1002 79.7693 83.9573Z" fill="#45413C"/>
<path d="M25.3848 1H72.6156V84.1275H25.3848V1Z" fill="white"/>
<path d="M72.6168 78.6217C72.6164 80.0818 72.019 81.4821 70.9557 82.5146C69.8924 83.547 68.4504 84.1272 66.9468 84.1275H31.0548C29.5511 84.1272 28.1091 83.547 27.0458 82.5146C25.9826 81.4821 25.3851 80.0818 25.3848 78.6217V71.5859C25.3848 72.4329 25.5566 73.2716 25.8904 74.0541C26.2242 74.8366 26.7134 75.5476 27.3302 76.1465C27.9469 76.7454 28.6791 77.2205 29.485 77.5446C30.2908 77.8688 31.1545 78.0356 32.0268 78.0356H65.9748C67.7363 78.0356 69.4257 77.3561 70.6714 76.1465C71.917 74.937 72.6168 73.2965 72.6168 71.5859V78.6217Z" fill="#F4F5F7"/>
<path d="M25.3848 1H72.6156V84.1275H25.3848V1Z" stroke="#525252" stroke-width="1.4" stroke-linecap="round" stroke-linejoin="round"/>
<path d="M29.8125 13.1826H68.1873V71.2282H29.8125V13.1826Z" fill="white"/>
<path d="M29.8125 44.7293L62.3025 13.1826H29.8125V44.7293Z" fill="#F7F7F7"/>
<path d="M29.8125 13.1826H68.1873V71.2282H29.8125V13.1826Z" stroke="#525252" stroke-width="1.4" stroke-linecap="round" stroke-linejoin="round"/>
<path d="M45.3105 77.6779C45.3105 78.6282 45.6993 79.5396 46.3913 80.2115C47.0833 80.8835 48.0219 81.261 49.0005 81.261C49.9792 81.261 50.9178 80.8835 51.6098 80.2115C52.3018 79.5396 52.6905 78.6282 52.6905 77.6779C52.6905 76.7276 52.3018 75.8162 51.6098 75.1442C50.9178 74.4722 49.9792 74.0947 49.0005 74.0947C48.0219 74.0947 47.0833 74.4722 46.3913 75.1442C45.6993 75.8162 45.3105 76.7276 45.3105 77.6779Z" fill="white" stroke="#525252" stroke-width="1.4" stroke-linecap="round" stroke-linejoin="round"/>
<path d="M46.7852 7.09082H57.8552Z" fill="#525252"/>
<path d="M46.7852 7.09082H57.8552" stroke="#525252" stroke-width="1.4" stroke-linecap="round" stroke-linejoin="round"/>
<path d="M39.4063 7.09072C39.4062 7.47084 39.5618 7.83539 39.8386 8.10418C40.1154 8.37297 40.4908 8.52397 40.8822 8.52397C41.2737 8.52397 41.6491 8.37297 41.9259 8.10418C42.2027 7.83539 42.3582 7.47084 42.3582 7.09072C42.3582 6.7106 42.2027 6.34605 41.9259 6.07726C41.6491 5.80847 41.2737 5.65747 40.8822 5.65747C40.4908 5.65747 40.1154 5.80847 39.8386 6.07726C39.5618 6.34605 39.4062 6.7106 39.4063 7.09072V7.09072Z" fill="#525252"/>
<path d="M70.3245 82.9468C70.462 82.947 70.5982 82.9193 70.7253 82.8652C70.8525 82.8112 70.968 82.7318 71.0654 82.6318C71.1627 82.5317 71.24 82.4128 71.2929 82.2819C71.3457 82.151 71.373 82.0106 71.3732 81.8688V62C68.9892 62.1989 66.6742 62.9229 64.5847 64.123C62.4952 65.3232 60.6796 66.9716 59.2607 68.957C57.8417 70.9425 56.8522 73.2187 56.3592 75.632C55.8661 78.0454 55.8809 80.5398 56.4024 82.9468H70.3245Z" fill="#F4F5F7"/>
<path d="M59.0352 78.7338C59.0405 81.4277 59.8201 84.0595 61.2754 86.2967C62.7307 88.5339 64.7964 90.2761 67.2116 91.3032C69.6267 92.3303 72.283 92.5962 74.8446 92.0673C77.4062 91.5384 79.7584 90.2384 81.6038 88.3315C83.4492 86.4247 84.7051 83.9967 85.2128 81.3541C85.7205 78.7116 85.4573 75.9732 84.4563 73.4849C83.4553 70.9965 81.7615 68.87 79.5889 67.3739C77.4164 65.8778 74.8625 65.0794 72.25 65.0793C68.7416 65.0831 65.3785 66.5238 62.9002 69.0845C60.422 71.6452 59.0317 75.1161 59.0352 78.7338Z" fill="#B6DCFE"/>
<path d="M85.2279 81.559C84.7027 78.4021 83.1122 75.5382 80.7373 73.4736C78.3625 71.409 75.3563 70.2766 72.25 70.2766C69.1438 70.2766 66.1376 71.409 63.7627 73.4736C61.3879 75.5382 59.7973 78.4021 59.2722 81.559C58.7769 78.888 59.0488 76.126 60.0546 73.6122C61.0603 71.0984 62.7561 68.9421 64.9337 67.4082C67.0925 65.8978 69.6412 65.0903 72.25 65.0903C74.8588 65.0903 77.4076 65.8978 79.5663 67.4082C81.744 68.9421 83.4397 71.0984 84.4455 73.6122C85.4512 76.126 85.7232 78.888 85.2279 81.559V81.559Z" fill="#DCEDFB"/>
<path d="M59.0352 78.7338C59.0405 81.4277 59.8201 84.0595 61.2754 86.2967C62.7307 88.5339 64.7964 90.2761 67.2116 91.3032C69.6267 92.3303 72.283 92.5962 74.8446 92.0673C77.4062 91.5384 79.7584 90.2384 81.6038 88.3315C83.4492 86.4247 84.7051 83.9967 85.2128 81.3541C85.7205 78.7116 85.4573 75.9732 84.4563 73.4849C83.4553 70.9965 81.7615 68.87 79.5889 67.3739C77.4164 65.8778 74.8625 65.0794 72.25 65.0793C68.7416 65.0831 65.3785 66.5238 62.9002 69.0845C60.422 71.6452 59.0317 75.1161 59.0352 78.7338Z" stroke="#45413C" stroke-width="1.4" stroke-linecap="round" stroke-linejoin="round"/>
<path d="M77.4263 75.1296C77.6027 74.969 77.7445 74.7741 77.8431 74.5568C77.9417 74.3395 77.9949 74.1044 77.9996 73.8658C78.0043 73.6273 77.9603 73.3902 77.8703 73.1693C77.7804 72.9483 77.6463 72.7479 77.4764 72.5805L73.8246 68.9602C73.6425 68.7534 73.4018 68.607 73.1345 68.5403C72.8671 68.4736 72.5858 68.49 72.3279 68.5871C72.0783 68.7024 71.8696 68.8908 71.7294 69.1273C71.5892 69.3639 71.5242 69.6374 71.5428 69.9117V75.3768C71.5428 75.416 71.5313 75.4543 71.5099 75.4871C71.4885 75.5199 71.458 75.5457 71.4221 75.5615C71.3862 75.5773 71.3465 75.5822 71.3079 75.5758C71.2692 75.5694 71.2333 75.5519 71.2044 75.5254L67.7239 72.322C67.6264 72.2321 67.5121 72.1623 67.3876 72.1166C67.2631 72.0708 67.1308 72.0501 66.9982 72.0555C66.8657 72.0609 66.7355 72.0923 66.6152 72.148C66.4948 72.2037 66.3865 72.2826 66.2967 72.3801C66.2068 72.4777 66.137 72.592 66.0912 72.7165C66.0455 72.841 66.0247 72.9733 66.0301 73.1058C66.0355 73.2383 66.067 73.3685 66.1227 73.4889C66.1784 73.6093 66.2573 73.7175 66.3548 73.8074L70.9548 78.0334C70.9755 78.0522 70.992 78.0752 71.0033 78.1008C71.0146 78.1264 71.0204 78.154 71.0204 78.182C71.0204 78.21 71.0146 78.2377 71.0033 78.2632C70.992 78.2888 70.9755 78.3118 70.9548 78.3306L66.3362 82.5655C66.2367 82.6547 66.1558 82.7627 66.0983 82.8833C66.0408 83.0039 66.0078 83.1347 66.0012 83.2682C65.9947 83.4017 66.0147 83.5351 66.0601 83.6608C66.1054 83.7865 66.1753 83.9019 66.2657 84.0004C66.356 84.0988 66.465 84.1784 66.5863 84.2344C66.7076 84.2904 66.8389 84.3218 66.9724 84.3268C67.106 84.3317 67.2391 84.3101 67.3643 84.2631C67.4894 84.2162 67.6039 84.1449 67.7013 84.0534L71.2068 80.837C71.2357 80.8105 71.2716 80.793 71.3103 80.7866C71.3489 80.7802 71.3886 80.7852 71.4245 80.8009C71.4604 80.8167 71.4909 80.8425 71.5123 80.8753C71.5338 80.9081 71.5452 80.9464 71.5452 80.9856V86.462C71.5266 86.7365 71.5918 87.0102 71.7321 87.2469C71.8724 87.4836 72.0813 87.6721 72.3312 87.7875C72.4769 87.8485 72.6335 87.8798 72.7916 87.8795C72.9862 87.8733 73.1776 87.8288 73.355 87.7486C73.5324 87.6683 73.6923 87.5539 73.8254 87.4119L77.4764 83.7941C77.6462 83.6266 77.7801 83.4263 77.8701 83.2055C77.9601 82.9846 78.0042 82.7477 77.9997 82.5093C77.9952 82.2708 77.9423 82.0357 77.8442 81.8184C77.746 81.601 77.6046 81.4059 77.4287 81.2449L74.2608 78.3323C74.2402 78.3133 74.2238 78.2902 74.2126 78.2646C74.2013 78.2389 74.1955 78.2112 74.1955 78.1832C74.1955 78.1552 74.2013 78.1275 74.2126 78.1019C74.2238 78.0762 74.2402 78.0532 74.2608 78.0342L77.4263 75.1296ZM75.7082 82.4056C75.7282 82.4243 75.7442 82.4468 75.7553 82.4717C75.7664 82.4967 75.7724 82.5237 75.7729 82.551C75.7736 82.5783 75.7686 82.6054 75.7584 82.6307C75.7481 82.656 75.7327 82.6789 75.7131 82.698L73.9086 84.4871C73.8803 84.5152 73.8443 84.5343 73.8051 84.5419C73.766 84.5495 73.7254 84.5454 73.6886 84.53C73.6518 84.5146 73.6204 84.4887 73.5983 84.4555C73.5762 84.4222 73.5645 84.3832 73.5645 84.3433V80.896C73.5646 80.8568 73.576 80.8185 73.5975 80.7857C73.6189 80.7529 73.6494 80.727 73.6853 80.7113C73.7212 80.6955 73.7608 80.6905 73.7995 80.6969C73.8382 80.7033 73.8741 80.7209 73.903 80.7473L75.7082 82.4056ZM73.903 75.6207C73.874 75.6469 73.8381 75.6641 73.7995 75.6703C73.761 75.6765 73.7215 75.6714 73.6858 75.6557C73.65 75.64 73.6196 75.6144 73.5981 75.5818C73.5766 75.5492 73.5649 75.5111 73.5645 75.4721V72.0296C73.5646 71.9898 73.5765 71.9509 73.5986 71.9178C73.6208 71.8847 73.6522 71.8588 73.689 71.8436C73.7258 71.8283 73.7662 71.8242 73.8053 71.8319C73.8444 71.8395 73.8804 71.8586 73.9086 71.8866L75.7123 73.6741C75.7317 73.6934 75.747 73.7163 75.7573 73.7417C75.7676 73.767 75.7726 73.7942 75.7721 73.8215C75.7716 73.8489 75.7655 73.8758 75.7543 73.9007C75.743 73.9257 75.7268 73.948 75.7066 73.9665L73.903 75.6207Z" fill="#525252"/>
</svg>
